<svg width="149" height="150" viewBox="0 0 149 150" fill="none" xmlns="http://www.w3.org/2000/svg">
<g clip-path="url(#clip0_515_2625)">
<mask id="mask0_515_2625" style="mask-type:luminance" maskUnits="userSpaceOnUse" x="0" y="0" width="149" height="150">
<path d="M149 0H0V150H149V0Z" fill="white"/>
</mask>
<g mask="url(#mask0_515_2625)">
<path d="M149.106 -0.0495605H0.0493164V149.894H149.106V-0.0495605Z" fill="#007DC3"/>
<path d="M11.0109 140.533C10.9052 139.37 10.3624 138.654 9.41075 138.172C8.63533 137.761 7.43696 137.59 6.35137 137.59C2.53773 137.59 1.21247 139.711 1.21247 142.207C1.21247 145.086 2.91134 146.929 6.28088 146.929C8.65648 146.929 10.4258 146.249 11.0039 143.816H19.9141C19.033 151.588 12.0895 152.475 6.23858 152.475C-1.57903 152.475 -7.70483 150.078 -7.70483 142.313C-7.70483 134.548 -1.58608 132.258 6.23858 132.258C14.0633 132.258 18.9907 134.307 19.9141 140.533H11.0039H11.0109Z" fill="white"/>
<path d="M35.6693 132.258C45.2633 132.258 49.4435 135.477 49.4435 142.349C49.4435 149.22 45.2633 152.475 35.6693 152.475C26.0752 152.475 21.895 149.255 21.895 142.349C21.895 135.442 26.0752 132.258 35.6693 132.258ZM35.6693 146.937C39.1022 146.937 40.5332 145.362 40.5332 142.356C40.5332 139.349 39.1022 137.803 35.6693 137.803C32.2363 137.803 30.8053 139.413 30.8053 142.356C30.8053 145.299 32.2715 146.937 35.6693 146.937Z" fill="white"/>
<path d="M52.5029 133.01H60.7365V136.605H60.7999C63.0134 133.697 65.7978 132.499 68.7303 132.499C69.6467 132.499 70.5984 132.57 71.5148 132.705V140.37C70.0203 139.994 68.7585 139.682 67.2641 139.682C64.2399 139.682 61.0043 140.675 61.0043 144.71V151.723H52.5029V133.01Z" fill="white"/>
<path d="M91.2103 149.738H91.1468C89.6172 151.518 87.2698 152.475 83.4914 152.475C77.9788 152.475 72.9175 149.426 72.9175 142.483C72.9175 135.541 77.9788 132.492 83.4914 132.492C86.9596 132.492 89.4127 133.35 90.8719 135.123H90.9424V126.436H99.4438V151.716H91.2103V149.731V149.738ZM86.2406 138.243C83.1812 138.243 81.6163 140.087 81.6163 142.483C81.6163 144.88 82.9768 146.731 86.2688 146.731C89.5608 146.731 90.9354 145.157 90.9354 142.483C90.9354 139.81 89.5396 138.243 86.2406 138.243Z" fill="white"/>
<path d="M129.812 146.114C129.163 148.064 127.739 149.674 125.561 150.766C123.383 151.858 120.458 152.475 116.545 152.475C107.6 152.475 102.496 149.192 102.496 142.349C102.496 135.881 107.395 132.258 115.763 132.258C124.13 132.258 130.045 135.03 129.911 144.37H111.202C111.202 145.703 112.598 147.752 116.341 147.752C118.554 147.752 119.844 147.277 120.761 146.107H129.805L129.812 146.114ZM121.339 140.051C121.17 138.037 119.231 136.768 116.306 136.768C113.38 136.768 111.646 137.69 111.202 140.051H121.339Z" fill="white"/>
<path d="M138.722 144.299C133.788 143.781 132.364 141.795 132.364 138.548C132.364 134.13 136.445 132.251 144.742 132.251C150.522 132.251 156.881 133.307 157.05 138.612H147.463C147.463 138.136 147.294 137.725 146.815 137.449C146.342 137.179 145.553 136.966 144.298 136.966C141.746 136.966 141.274 137.548 141.274 138.264C141.274 138.739 141.718 139.257 143.551 139.427L151.643 140.143C156.239 140.555 157.967 142.604 157.967 145.788C157.967 150.61 153.822 152.461 144.841 152.461C135.86 152.461 132.152 150.61 131.884 145.894H141.88C141.979 146.646 142.352 147.128 142.93 147.398C143.544 147.674 144.397 147.738 145.348 147.738C147.527 147.738 148.175 147.156 148.175 146.298C148.175 145.752 147.9 145.242 147.019 145.135L138.722 144.284V144.299Z" fill="white"/>
<path d="M100.769 70.0682C100.452 66.3879 98.767 64.1116 95.8134 62.5941C93.3814 61.2964 89.6946 60.7504 86.318 60.7504C74.5105 60.7504 70.3938 67.4657 70.3938 75.3795C70.3938 84.4775 75.6666 90.3277 86.1065 90.3277C93.4942 90.3277 98.9785 88.1649 100.769 80.471H128.409C125.667 105.063 104.146 107.878 86.0008 107.878C61.7443 107.878 42.7537 100.291 42.7537 75.6986C42.7537 51.1064 61.7443 43.845 86.0008 43.845C110.257 43.845 125.554 50.3476 128.409 70.0611H100.769V70.0682Z" fill="white"/>
<path d="M16.6926 23.0605H35.9371V38.5477H36.3248C45.369 25.1595 71.0705 19.4795 83.7733 19.4795C88.5879 19.4795 91.0834 19.6426 94.7419 20.451V34.5979C89.9343 33.6335 88.4117 33.6122 83.2164 33.6122C64.1693 33.6122 37.1143 41.0367 35.9371 64.6929V107.595H16.6926V23.0605Z" fill="white"/>
</g>
</g>
<defs>
<clipPath id="clip0_515_2625">
<rect width="149" height="150" fill="white"/>
</clipPath>
</defs>
</svg>
